<?xml version="1.0" encoding="UTF-8" standalone="no"?>
<!-- Created with Inkscape (http://www.inkscape.org/) -->

<svg
   xmlns:dc="http://purl.org/dc/elements/1.1/"
   xmlns:cc="http://creativecommons.org/ns#"
   xmlns:rdf="http://www.w3.org/1999/02/22-rdf-syntax-ns#"
   xmlns:svg="http://www.w3.org/2000/svg"
   xmlns="http://www.w3.org/2000/svg"
   xmlns:sodipodi="http://sodipodi.sourceforge.net/DTD/sodipodi-0.dtd"
   xmlns:inkscape="http://www.inkscape.org/namespaces/inkscape"
   width="210mm"
   height="297mm"
   viewBox="0 0 210 297"
   version="1.1"
   id="svg8"
   inkscape:version="0.92.1 r15371"
   sodipodi:docname="logo2.svg"
   inkscape:export-filename="D:\golang\src\github.com\covrom\gonec\extra\gonec.png"
   inkscape:export-xdpi="65.093315"
   inkscape:export-ydpi="65.093315">
  <defs
     id="defs2" />
  <sodipodi:namedview
     id="base"
     pagecolor="#ffffff"
     bordercolor="#666666"
     borderopacity="1.0"
     inkscape:pageopacity="0.0"
     inkscape:pageshadow="2"
     inkscape:zoom="0.98994949"
     inkscape:cx="428.04864"
     inkscape:cy="910.51658"
     inkscape:document-units="mm"
     inkscape:current-layer="layer1"
     showgrid="false"
     inkscape:window-width="1920"
     inkscape:window-height="1017"
     inkscape:window-x="-8"
     inkscape:window-y="-8"
     inkscape:window-maximized="1"
     showguides="true"
     inkscape:guide-bbox="true">
    <sodipodi:guide
       position="114.12409,266.46772"
       orientation="0,1"
       id="guide4520"
       inkscape:locked="false" />
    <sodipodi:guide
       position="113.32228,227.98091"
       orientation="0,1"
       id="guide4522"
       inkscape:locked="false" />
    <sodipodi:guide
       position="43.845237,271.54586"
       orientation="1,0"
       id="guide4524"
       inkscape:locked="false" />
    <sodipodi:guide
       position="81.642855,271.54586"
       orientation="1,0"
       id="guide4526"
       inkscape:locked="false" />
    <sodipodi:guide
       position="91.659224,252.4881"
       orientation="1,0"
       id="guide4528"
       inkscape:locked="false" />
    <sodipodi:guide
       position="181.61756,240.20388"
       orientation="1,0"
       id="guide4530"
       inkscape:locked="false" />
    <sodipodi:guide
       position="121.14137,257.40179"
       orientation="0,1"
       id="guide4532"
       inkscape:locked="false" />
    <sodipodi:guide
       position="130.40178,248.33036"
       orientation="0,1"
       id="guide4534"
       inkscape:locked="false" />
  </sodipodi:namedview>
  <metadata
     id="metadata5">
    <rdf:RDF>
      <cc:Work
         rdf:about="">
        <dc:format>image/svg+xml</dc:format>
        <dc:type
           rdf:resource="http://purl.org/dc/dcmitype/StillImage" />
        <dc:title />
      </cc:Work>
    </rdf:RDF>
  </metadata>
  <g
     inkscape:label="Layer 1"
     inkscape:groupmode="layer"
     id="layer1">
    <text
       xml:space="preserve"
       style="font-style:normal;font-weight:normal;font-size:16.51102638px;line-height:1.25;font-family:sans-serif;letter-spacing:0px;word-spacing:0px;fill:#000000;fill-opacity:1;stroke:none;stroke-width:0.41277567"
       x="80.505684"
       y="77.104225"
       id="text52"
       transform="scale(1.1162835,0.89582979)"><tspan
         sodipodi:role="line"
         x="80.505684"
         y="77.104225"
         style="font-style:normal;font-variant:normal;font-weight:200;font-stretch:normal;font-size:26.41764259px;line-height:1;font-family:Iosevka;-inkscape-font-specification:'Iosevka Ultra-Light';stroke-width:0.41277567"
         id="tspan54"><tspan
           dx="0 -1.7690384"
           rotate="0 0 0"
           id="tspan4516"
           style="font-style:normal;font-variant:normal;font-weight:normal;font-stretch:normal;font-size:30.82058525px;line-height:1.25;font-family:Iosevka;-inkscape-font-specification:Iosevka;letter-spacing:3.62417078px;fill:#ff6600;stroke-width:0.41277567">GO<tspan
   style="font-style:normal;font-variant:normal;font-weight:normal;font-stretch:normal;font-size:30.82058525px;font-family:Iosevka;-inkscape-font-specification:Iosevka;letter-spacing:3.62417078px;fill:#005c94;stroke-width:0.41277567"
   id="tspan56"
   dx="-1.7690384 -1.7690384"
   rotate="0 0 0">NE</tspan><tspan
   style="font-style:normal;font-variant:normal;font-weight:normal;font-stretch:normal;font-size:30.82058525px;font-family:Iosevka;-inkscape-font-specification:Iosevka;letter-spacing:3.62417078px;fill:#dc0000;stroke-width:0.41277567"
   id="tspan58"
   dx="-2.5314312"
   rotate="0 0">C</tspan></tspan></tspan></text>
    <g
       id="g4532"
       transform="matrix(0.68250034,-0.22979826,0.17969899,0.88387132,20.254338,15.082782)">
      <g
         transform="matrix(0.37435544,0,0,0.46002838,20.066206,0.67874806)"
         id="g70">
        <g
           id="g48">
          <path
             inkscape:connector-curvature="0"
             d="m 18.941946,109.55585 c 2.396821,0.78883 4.91473,1.17196 7.405334,1.53503 4.036102,0.60606 8.117173,0.7667 12.191346,0.86539 2.939812,0.0486 5.951595,0.13151 8.808765,-0.68923 0.397335,-0.11414 0.779835,-0.27473 1.169754,-0.41209 2.827139,-1.31702 7.524226,-3.97343 -5.142539,3.0452 -0.200388,0.11103 0.376131,-0.26204 0.556649,-0.40309 0.434467,-0.33949 0.548722,-0.47304 0.94175,-0.85818 0.94362,-0.9827 1.731301,-2.1051 2.373688,-3.30362 0.754221,-1.5435 1.144151,-3.21874 1.442045,-4.90023 0.257392,-1.73885 0.336966,-3.50033 0.317955,-5.256315 -0.10705,-2.155172 -0.776896,-4.224814 -1.539504,-6.226136 -0.777219,-1.861851 -1.564278,-3.71853 -2.310498,-5.593056 -0.502412,-1.265848 -0.884772,-2.57235 -1.13352,-3.910398 -0.149998,-1.055116 0.05151,-2.042105 0.507391,-2.990644 0.398915,-0.78526 0.988142,-1.472946 1.755648,-1.922164 2.723267,-1.593924 5.466998,-3.152616 8.200499,-4.728924 2.454256,-1.034529 4.973711,-1.876835 7.522887,-2.641124 4.376724,-1.291984 8.870934,-2.081818 13.376751,-2.756841 4.647917,-0.71269 9.342221,-1.01109 14.034807,-1.227376 1.882373,-0.0535 3.765616,-0.04674 5.648431,-0.03153 0,0 -7.070127,5.099881 -7.070127,5.099881 v 0 c -1.760744,-0.110488 -3.524118,-0.189696 -5.289063,-0.153178 -4.63014,0.141478 -9.258554,0.452443 -13.835549,1.197763 -4.55771,0.729581 -9.101971,1.584595 -13.502683,3.008172 -2.634882,0.857936 -5.265274,1.774862 -7.74387,3.025413 2.299253,-1.342017 4.594098,-2.69162 6.897765,-4.026053 0.172026,-0.09965 -0.334934,0.21427 -0.502386,0.321429 -0.411596,0.2634 -0.776719,0.484563 -1.099931,0.855464 -0.09309,0.106825 -0.178787,0.219874 -0.268182,0.329813 -0.506822,0.849683 -0.831336,1.451547 -0.774967,2.48557 0.153215,1.305788 0.481359,2.57134 0.928116,3.808246 0.691796,1.900584 1.444559,3.774458 2.209787,5.646602 0.804489,2.081777 1.540026,4.213688 1.755997,6.449362 0.06005,1.800344 0.01841,3.607557 -0.226986,5.394604 -0.273455,1.73071 -0.629341,3.46259 -1.284372,5.09395 -0.227626,0.54657 -0.313629,0.81467 -0.620406,1.31644 -0.477573,0.78113 -1.050533,1.51201 -1.610511,2.2342 -0.24517,0.27263 -0.648917,0.73313 -0.915381,0.98217 -2.92004,2.72903 -6.678515,4.55112 -10.422535,5.90696 -1.146681,0.29455 -1.313895,0.37251 -2.546663,0.53057 -2.42983,0.31155 -4.88575,0.20098 -7.326585,0.15004 -4.123205,-0.13318 -8.25139,-0.30222 -12.342049,-0.8721 -2.647193,-0.35896 -5.281315,-0.79779 -7.911303,-1.26484 0,0 7.374245,-5.11515 7.374245,-5.11515 z"
             id="path16"
             style="fill:#ff9900;fill-opacity:1;stroke-width:0.26458332" />
          <path
             inkscape:connector-curvature="0"
             d="m 47.297895,112.36184 c 2.861043,0.16891 5.727121,0.14348 8.591449,0.12216 5.686992,-0.15235 11.375073,-0.23443 17.063839,-0.2774 5.944637,-0.0382 11.889645,-0.0521 17.83348,-0.16368 2.476159,-0.0628 1.307955,-0.0302 3.504668,-0.096 0,0 -6.895041,5.00942 -6.895041,5.00942 v 0 c -2.022891,-0.0666 -0.942928,-0.034 -3.239966,-0.0954 -5.851755,-0.1068 -11.705156,-0.0995 -17.557332,-0.0262 -5.791845,0.0928 -11.582389,0.23832 -17.369062,0.50802 -3.054969,0.0979 -6.111137,0.15453 -9.165219,0.27437 0,0 7.233184,-5.25522 7.233184,-5.25522 z"
             id="path18"
             style="fill:#ff9900;fill-opacity:1;stroke-width:0.26458332" />
          <path
             inkscape:connector-curvature="0"
             d="m 46.203438,111.96128 c 0.877956,0.1863 1.742332,0.42858 2.628958,0.57407 0.947987,0.2369 1.828001,0.67652 2.741428,1.01503 0.633708,0.27678 1.339188,0.54318 1.870093,1.00474 0.363117,0.31568 0.457332,0.49729 0.734311,0.88644 0.630452,0.89238 1.004957,1.72286 1.199164,2.79612 0.264337,1.67026 -0.317329,3.24527 -0.946143,4.76194 -1.040243,2.34597 -2.308156,4.57898 -3.439969,6.87989 -1.333765,2.67562 -2.086446,5.57142 -2.598163,8.50186 -0.338831,2.27168 -0.475533,4.57049 -0.337524,6.86308 0.154551,1.8358 0.775266,3.58728 1.455634,5.28578 0.657244,1.55363 1.452457,2.55795 2.808595,3.54487 2.465107,1.30033 5.313346,1.62763 8.031472,2.04297 5.52692,0.83171 11.08801,1.41805 16.656031,1.89029 5.485947,0.45484 10.989296,0.74564 16.49495,0.69059 1.711682,-0.0513 1.638689,-0.0197 3.207531,-0.16517 0.925335,-0.0858 1.893556,-0.12707 2.652985,-0.71128 -7.620368,4.41878 -9.196729,1.98209 -7.399375,4.58811 0,0 8.043624,-4.11761 8.043624,-4.11761 v 0 c 1.06453,3.36331 0.29569,0.39365 -7.658192,5.10314 -1.829157,0.33404 -3.706529,0.17375 -5.553379,0.16373 -5.4136,-0.18496 -10.821509,-0.52235 -16.220432,-0.95959 -5.673373,-0.46668 -11.337081,-1.04277 -16.991005,-1.70521 -2.568866,-0.31501 -5.440672,-0.53999 -7.822623,-1.64949 -0.298074,-0.13884 -0.573849,-0.32125 -0.860777,-0.48187 -0.227793,-0.17799 -0.466283,-0.34309 -0.683384,-0.53398 -1.059767,-0.93182 -1.808951,-2.1475 -2.346298,-3.43992 -0.687785,-1.79247 -1.373222,-3.62378 -1.538978,-5.55067 -0.146053,-2.37647 0.01505,-4.75542 0.376081,-7.10873 0.526595,-2.98683 1.238417,-5.96094 2.521791,-8.7238 1.061167,-2.27253 2.262087,-4.47645 3.281619,-6.76882 0.591746,-1.325 1.217949,-2.74544 1.015439,-4.22914 -0.146674,-0.89617 -0.46061,-1.69703 -1.002339,-2.43591 -0.616905,-0.80718 -1.391372,-1.11527 -2.320809,-1.46838 -0.880342,-0.34677 -1.767935,-0.69518 -2.704158,-0.8591 -0.886248,-0.20837 -1.766993,-0.44232 -2.670402,-0.56884 0,0 7.374244,-5.11514 7.374244,-5.11514 z"
             id="path20"
             style="fill:#ff6600;fill-opacity:1;stroke-width:0.26458332" />
        </g>
        <g
           id="g43"
           transform="matrix(-1,0,0,1,242.41177,-28.063295)">
          <path
             style="fill:#dc0000;fill-opacity:1;stroke-width:0.26458332"
             id="path34"
             d="m 94.579217,124.25567 c 2.39683,0.78883 4.91473,1.17196 7.405343,1.53503 4.0361,0.60606 8.11717,0.7667 12.19134,0.86539 2.93981,0.0486 5.9516,0.13151 8.80877,-0.68923 0.39733,-0.11414 0.77983,-0.27473 1.16975,-0.41209 2.82714,-1.31702 7.52423,-3.97343 -5.14254,3.0452 -0.20039,0.11103 0.37613,-0.26204 0.55665,-0.40309 0.43447,-0.33949 0.54872,-0.47304 0.94175,-0.85818 0.94362,-0.9827 1.7313,-2.1051 2.37369,-3.30362 0.75422,-1.5435 1.14415,-3.21874 1.44204,-4.90023 0.2574,-1.73885 0.33697,-3.50033 0.31796,-5.25631 -0.10705,-2.15517 -0.7769,-4.22481 -1.5395,-6.22614 -0.77722,-1.86185 -1.56428,-3.71853 -2.3105,-5.59305 -0.50241,-1.26585 -0.88477,-2.572353 -1.13352,-3.910401 -0.15,-1.055116 0.0515,-2.042105 0.50739,-2.990644 0.39891,-0.78526 0.98814,-1.472946 1.75565,-1.922164 2.72326,-1.593924 5.46699,-3.152616 8.2005,-4.728924 2.45425,-1.034529 4.97371,-1.876835 7.52288,-2.641124 4.37673,-1.291984 8.87094,-2.081818 13.37675,-2.756841 4.64792,-0.71269 9.34222,-1.01109 14.03481,-1.227376 1.88237,-0.0535 3.76562,-0.04674 5.64843,-0.03153 0,0 -7.07013,5.099881 -7.07013,5.099881 v 0 c -1.76074,-0.110488 -3.52411,-0.189696 -5.28906,-0.153178 -4.63014,0.141478 -9.25855,0.452443 -13.83555,1.197763 -4.55771,0.729581 -9.10197,1.584595 -13.50268,3.008172 -2.63488,0.857936 -5.26527,1.774862 -7.74387,3.025413 2.29925,-1.342017 4.5941,-2.69162 6.89776,-4.026053 0.17203,-0.09965 -0.33493,0.21427 -0.50238,0.321429 -0.4116,0.2634 -0.77672,0.484563 -1.09993,0.855464 -0.0931,0.106825 -0.17879,0.219874 -0.26818,0.329813 -0.50683,0.849683 -0.83134,1.451547 -0.77497,2.48557 0.15321,1.305788 0.48136,2.57134 0.92811,3.808246 0.6918,1.900584 1.44456,3.774454 2.20979,5.646604 0.80449,2.08178 1.54003,4.21369 1.756,6.44936 0.0601,1.80034 0.0184,3.60756 -0.22699,5.3946 -0.27345,1.73071 -0.62934,3.46259 -1.28437,5.09395 -0.22763,0.54657 -0.31363,0.81467 -0.62041,1.31644 -0.47757,0.78113 -1.05053,1.51201 -1.61051,2.2342 -0.24517,0.27263 -0.64891,0.73313 -0.91538,0.98217 -2.92004,2.72903 -6.67851,4.55112 -10.42253,5.90696 -1.14668,0.29455 -1.3139,0.37251 -2.54667,0.53057 -2.42983,0.31155 -4.88575,0.20098 -7.32658,0.15004 -4.12321,-0.13318 -8.251393,-0.30222 -12.342053,-0.8721 -2.64719,-0.35896 -5.28131,-0.79779 -7.9113,-1.26484 0,0 7.37424,-5.11515 7.37424,-5.11515 z"
             inkscape:connector-curvature="0" />
          <path
             style="fill:#dc0000;fill-opacity:1;stroke-width:0.26458332"
             id="path36"
             d="m 122.93517,127.06166 c 2.86104,0.16891 5.72712,0.14348 8.59145,0.12216 5.68699,-0.15235 11.37507,-0.23443 17.06384,-0.2774 5.94464,-0.0382 11.88964,-0.0521 17.83348,-0.16368 2.47616,-0.0628 1.30795,-0.0302 3.50467,-0.096 0,0 -6.89504,5.00942 -6.89504,5.00942 v 0 c -2.02289,-0.0666 -0.94293,-0.034 -3.23997,-0.0954 -5.85175,-0.1068 -11.70516,-0.0995 -17.55733,-0.0262 -5.79185,0.0928 -11.58239,0.23832 -17.36906,0.50802 -3.05497,0.0979 -6.11114,0.15453 -9.16522,0.27437 0,0 7.23318,-5.25522 7.23318,-5.25522 z"
             inkscape:connector-curvature="0" />
          <path
             style="fill:#005c94;fill-opacity:1;stroke-width:0.26458332"
             id="path38"
             d="m 121.84071,126.6611 c 0.87796,0.1863 1.74234,0.42858 2.62896,0.57407 0.94799,0.2369 1.828,0.67652 2.74143,1.01503 0.63371,0.27678 1.33919,0.54318 1.87009,1.00474 0.36312,0.31568 0.45734,0.49729 0.73431,0.88644 0.63046,0.89238 1.00496,1.72286 1.19917,2.79612 0.26434,1.67026 -0.31733,3.24527 -0.94614,4.76194 -1.04025,2.34597 -2.30816,4.57898 -3.43997,6.87989 -1.33377,2.67562 -2.08645,5.57142 -2.59817,8.50186 -0.33883,2.27168 -0.47553,4.57049 -0.33752,6.86308 0.15455,1.8358 0.77527,3.58728 1.45563,5.28578 0.65725,1.55363 1.45246,2.55795 2.8086,3.54487 2.46511,1.30033 5.31334,1.62763 8.03147,2.04297 5.52692,0.83171 11.08801,1.41805 16.65603,1.89029 5.48595,0.45484 10.9893,0.74564 16.49495,0.69059 1.71168,-0.0513 1.63869,-0.0197 3.20753,-0.16517 0.92534,-0.0858 1.89356,-0.12707 2.65299,-0.71128 -7.62037,4.41878 -9.19673,1.98209 -7.39938,4.58811 0,0 8.04363,-4.11761 8.04363,-4.11761 v 0 c 1.06453,3.36331 0.29569,0.39365 -7.6582,5.10314 -1.82915,0.33404 -3.70652,0.17375 -5.55337,0.16373 -5.4136,-0.18496 -10.82151,-0.52235 -16.22044,-0.95959 -5.67337,-0.46668 -11.33708,-1.04277 -16.991,-1.70521 -2.56887,-0.31501 -5.44067,-0.53999 -7.82262,-1.64949 -0.29808,-0.13884 -0.57385,-0.32125 -0.86078,-0.48187 -0.22779,-0.17799 -0.46628,-0.34309 -0.68339,-0.53398 -1.05976,-0.93182 -1.80895,-2.1475 -2.34629,-3.43992 -0.68779,-1.79247 -1.37323,-3.62378 -1.53898,-5.55067 -0.14605,-2.37647 0.0151,-4.75542 0.37608,-7.10873 0.52659,-2.98683 1.23842,-5.96094 2.52179,-8.7238 1.06117,-2.27253 2.26209,-4.47645 3.28162,-6.76882 0.59175,-1.325 1.21795,-2.74544 1.01544,-4.22914 -0.14668,-0.89617 -0.46061,-1.69703 -1.00234,-2.43591 -0.61691,-0.80718 -1.39137,-1.11527 -2.32081,-1.46838 -0.88034,-0.34677 -1.76793,-0.69518 -2.70416,-0.8591 -0.88625,-0.20837 -1.76699,-0.44232 -2.6704,-0.56884 0,0 7.37424,-5.11514 7.37424,-5.11514 z"
             inkscape:connector-curvature="0" />
        </g>
      </g>
      <g
         id="g4512"
         transform="matrix(0.37435544,0,0,0.46002838,15.538313,3.5172142)">
        <g
           id="g4502">
          <path
             style="fill:#ff9900;fill-opacity:1;stroke-width:0.26458332"
             id="path4496"
             d="m 18.941946,109.55585 c 2.396821,0.78883 4.91473,1.17196 7.405334,1.53503 4.036102,0.60606 8.117173,0.7667 12.191346,0.86539 2.939812,0.0486 5.951595,0.13151 8.808765,-0.68923 0.397335,-0.11414 0.779835,-0.27473 1.169754,-0.41209 2.827139,-1.31702 7.524226,-3.97343 -5.142539,3.0452 -0.200388,0.11103 0.376131,-0.26204 0.556649,-0.40309 0.434467,-0.33949 0.548722,-0.47304 0.94175,-0.85818 0.94362,-0.9827 1.731301,-2.1051 2.373688,-3.30362 0.754221,-1.5435 1.144151,-3.21874 1.442045,-4.90023 0.257392,-1.73885 0.336966,-3.50033 0.317955,-5.256315 -0.10705,-2.155172 -0.776896,-4.224814 -1.539504,-6.226136 -0.777219,-1.861851 -1.564278,-3.71853 -2.310498,-5.593056 -0.502412,-1.265848 -0.884772,-2.57235 -1.13352,-3.910398 -0.149998,-1.055116 0.05151,-2.042105 0.507391,-2.990644 0.398915,-0.78526 0.988142,-1.472946 1.755648,-1.922164 2.723267,-1.593924 5.466998,-3.152616 8.200499,-4.728924 2.454256,-1.034529 4.973711,-1.876835 7.522887,-2.641124 4.376724,-1.291984 8.870934,-2.081818 13.376751,-2.756841 4.647917,-0.71269 9.342221,-1.01109 14.034807,-1.227376 1.882373,-0.0535 3.765616,-0.04674 5.648431,-0.03153 0,0 -7.070127,5.099881 -7.070127,5.099881 v 0 c -1.760744,-0.110488 -3.524118,-0.189696 -5.289063,-0.153178 -4.63014,0.141478 -9.258554,0.452443 -13.835549,1.197763 -4.55771,0.729581 -9.101971,1.584595 -13.502683,3.008172 -2.634882,0.857936 -5.265274,1.774862 -7.74387,3.025413 2.299253,-1.342017 4.594098,-2.69162 6.897765,-4.026053 0.172026,-0.09965 -0.334934,0.21427 -0.502386,0.321429 -0.411596,0.2634 -0.776719,0.484563 -1.099931,0.855464 -0.09309,0.106825 -0.178787,0.219874 -0.268182,0.329813 -0.506822,0.849683 -0.831336,1.451547 -0.774967,2.48557 0.153215,1.305788 0.481359,2.57134 0.928116,3.808246 0.691796,1.900584 1.444559,3.774458 2.209787,5.646602 0.804489,2.081777 1.540026,4.213688 1.755997,6.449362 0.06005,1.800344 0.01841,3.607557 -0.226986,5.394604 -0.273455,1.73071 -0.629341,3.46259 -1.284372,5.09395 -0.227626,0.54657 -0.313629,0.81467 -0.620406,1.31644 -0.477573,0.78113 -1.050533,1.51201 -1.610511,2.2342 -0.24517,0.27263 -0.648917,0.73313 -0.915381,0.98217 -2.92004,2.72903 -6.678515,4.55112 -10.422535,5.90696 -1.146681,0.29455 -1.313895,0.37251 -2.546663,0.53057 -2.42983,0.31155 -4.88575,0.20098 -7.326585,0.15004 -4.123205,-0.13318 -8.25139,-0.30222 -12.342049,-0.8721 -2.647193,-0.35896 -5.281315,-0.79779 -7.911303,-1.26484 0,0 7.374245,-5.11515 7.374245,-5.11515 z"
             inkscape:connector-curvature="0" />
          <path
             style="fill:#ff9900;fill-opacity:1;stroke-width:0.26458332"
             id="path4498"
             d="m 47.297895,112.36184 c 2.861043,0.16891 5.727121,0.14348 8.591449,0.12216 5.686992,-0.15235 11.375073,-0.23443 17.063839,-0.2774 5.944637,-0.0382 11.889645,-0.0521 17.83348,-0.16368 2.476159,-0.0628 1.307955,-0.0302 3.504668,-0.096 0,0 -6.895041,5.00942 -6.895041,5.00942 v 0 c -2.022891,-0.0666 -0.942928,-0.034 -3.239966,-0.0954 -5.851755,-0.1068 -11.705156,-0.0995 -17.557332,-0.0262 -5.791845,0.0928 -11.582389,0.23832 -17.369062,0.50802 -3.054969,0.0979 -6.111137,0.15453 -9.165219,0.27437 0,0 7.233184,-5.25522 7.233184,-5.25522 z"
             inkscape:connector-curvature="0" />
          <path
             style="fill:#ff6600;fill-opacity:1;stroke-width:0.26458332"
             id="path4500"
             d="m 46.203438,111.96128 c 0.877956,0.1863 1.742332,0.42858 2.628958,0.57407 0.947987,0.2369 1.828001,0.67652 2.741428,1.01503 0.633708,0.27678 1.339188,0.54318 1.870093,1.00474 0.363117,0.31568 0.457332,0.49729 0.734311,0.88644 0.630452,0.89238 1.004957,1.72286 1.199164,2.79612 0.264337,1.67026 -0.317329,3.24527 -0.946143,4.76194 -1.040243,2.34597 -2.308156,4.57898 -3.439969,6.87989 -1.333765,2.67562 -2.086446,5.57142 -2.598163,8.50186 -0.338831,2.27168 -0.475533,4.57049 -0.337524,6.86308 0.154551,1.8358 0.775266,3.58728 1.455634,5.28578 0.657244,1.55363 1.452457,2.55795 2.808595,3.54487 2.465107,1.30033 5.313346,1.62763 8.031472,2.04297 5.52692,0.83171 11.08801,1.41805 16.656031,1.89029 5.485947,0.45484 10.989296,0.74564 16.49495,0.69059 1.711682,-0.0513 1.638689,-0.0197 3.207531,-0.16517 0.925335,-0.0858 1.893556,-0.12707 2.652985,-0.71128 -7.620368,4.41878 -9.196729,1.98209 -7.399375,4.58811 0,0 8.043624,-4.11761 8.043624,-4.11761 v 0 c 1.06453,3.36331 0.29569,0.39365 -7.658192,5.10314 -1.829157,0.33404 -3.706529,0.17375 -5.553379,0.16373 -5.4136,-0.18496 -10.821509,-0.52235 -16.220432,-0.95959 -5.673373,-0.46668 -11.337081,-1.04277 -16.991005,-1.70521 -2.568866,-0.31501 -5.440672,-0.53999 -7.822623,-1.64949 -0.298074,-0.13884 -0.573849,-0.32125 -0.860777,-0.48187 -0.227793,-0.17799 -0.466283,-0.34309 -0.683384,-0.53398 -1.059767,-0.93182 -1.808951,-2.1475 -2.346298,-3.43992 -0.687785,-1.79247 -1.373222,-3.62378 -1.538978,-5.55067 -0.146053,-2.37647 0.01505,-4.75542 0.376081,-7.10873 0.526595,-2.98683 1.238417,-5.96094 2.521791,-8.7238 1.061167,-2.27253 2.262087,-4.47645 3.281619,-6.76882 0.591746,-1.325 1.217949,-2.74544 1.015439,-4.22914 -0.146674,-0.89617 -0.46061,-1.69703 -1.002339,-2.43591 -0.616905,-0.80718 -1.391372,-1.11527 -2.320809,-1.46838 -0.880342,-0.34677 -1.767935,-0.69518 -2.704158,-0.8591 -0.886248,-0.20837 -1.766993,-0.44232 -2.670402,-0.56884 0,0 7.374244,-5.11514 7.374244,-5.11514 z"
             inkscape:connector-curvature="0" />
        </g>
        <g
           transform="matrix(-1,0,0,1,240.93165,-27.29665)"
           id="g4510">
          <path
             inkscape:connector-curvature="0"
             d="m 94.579217,124.25567 c 2.39683,0.78883 4.91473,1.17196 7.405343,1.53503 4.0361,0.60606 8.11717,0.7667 12.19134,0.86539 2.93981,0.0486 5.9516,0.13151 8.80877,-0.68923 0.39733,-0.11414 0.77983,-0.27473 1.16975,-0.41209 2.82714,-1.31702 7.52423,-3.97343 -5.14254,3.0452 -0.20039,0.11103 0.37613,-0.26204 0.55665,-0.40309 0.43447,-0.33949 0.54872,-0.47304 0.94175,-0.85818 0.94362,-0.9827 1.7313,-2.1051 2.37369,-3.30362 0.75422,-1.5435 1.14415,-3.21874 1.44204,-4.90023 0.2574,-1.73885 0.33697,-3.50033 0.31796,-5.25631 -0.10705,-2.15517 -0.7769,-4.22481 -1.5395,-6.22614 -0.77722,-1.86185 -1.56428,-3.71853 -2.3105,-5.59305 -0.50241,-1.26585 -0.88477,-2.572353 -1.13352,-3.910401 -0.15,-1.055116 0.0515,-2.042105 0.50739,-2.990644 0.39891,-0.78526 0.98814,-1.472946 1.75565,-1.922164 2.72326,-1.593924 5.46699,-3.152616 8.2005,-4.728924 2.45425,-1.034529 4.97371,-1.876835 7.52288,-2.641124 4.37673,-1.291984 8.87094,-2.081818 13.37675,-2.756841 4.64792,-0.71269 9.34222,-1.01109 14.03481,-1.227376 1.88237,-0.0535 3.76562,-0.04674 5.64843,-0.03153 0,0 -7.07013,5.099881 -7.07013,5.099881 v 0 c -1.76074,-0.110488 -3.52411,-0.189696 -5.28906,-0.153178 -4.63014,0.141478 -9.25855,0.452443 -13.83555,1.197763 -4.55771,0.729581 -9.10197,1.584595 -13.50268,3.008172 -2.63488,0.857936 -5.26527,1.774862 -7.74387,3.025413 2.29925,-1.342017 4.5941,-2.69162 6.89776,-4.026053 0.17203,-0.09965 -0.33493,0.21427 -0.50238,0.321429 -0.4116,0.2634 -0.77672,0.484563 -1.09993,0.855464 -0.0931,0.106825 -0.17879,0.219874 -0.26818,0.329813 -0.50683,0.849683 -0.83134,1.451547 -0.77497,2.48557 0.15321,1.305788 0.48136,2.57134 0.92811,3.808246 0.6918,1.900584 1.44456,3.774454 2.20979,5.646604 0.80449,2.08178 1.54003,4.21369 1.756,6.44936 0.0601,1.80034 0.0184,3.60756 -0.22699,5.3946 -0.27345,1.73071 -0.62934,3.46259 -1.28437,5.09395 -0.22763,0.54657 -0.31363,0.81467 -0.62041,1.31644 -0.47757,0.78113 -1.05053,1.51201 -1.61051,2.2342 -0.24517,0.27263 -0.64891,0.73313 -0.91538,0.98217 -2.92004,2.72903 -6.67851,4.55112 -10.42253,5.90696 -1.14668,0.29455 -1.3139,0.37251 -2.54667,0.53057 -2.42983,0.31155 -4.88575,0.20098 -7.32658,0.15004 -4.12321,-0.13318 -8.251393,-0.30222 -12.342053,-0.8721 -2.64719,-0.35896 -5.28131,-0.79779 -7.9113,-1.26484 0,0 7.37424,-5.11515 7.37424,-5.11515 z"
             id="path4504"
             style="fill:#dc0000;fill-opacity:1;stroke-width:0.26458332" />
          <path
             inkscape:connector-curvature="0"
             d="m 122.93517,127.06166 c 2.86104,0.16891 5.72712,0.14348 8.59145,0.12216 5.68699,-0.15235 11.37507,-0.23443 17.06384,-0.2774 5.94464,-0.0382 11.88964,-0.0521 17.83348,-0.16368 2.47616,-0.0628 1.30795,-0.0302 3.50467,-0.096 0,0 -6.89504,5.00942 -6.89504,5.00942 v 0 c -2.02289,-0.0666 -0.94293,-0.034 -3.23997,-0.0954 -5.85175,-0.1068 -11.70516,-0.0995 -17.55733,-0.0262 -5.79185,0.0928 -11.58239,0.23832 -17.36906,0.50802 -3.05497,0.0979 -6.11114,0.15453 -9.16522,0.27437 0,0 7.23318,-5.25522 7.23318,-5.25522 z"
             id="path4506"
             style="fill:#dc0000;fill-opacity:1;stroke-width:0.26458332" />
          <path
             inkscape:connector-curvature="0"
             d="m 121.84071,126.6611 c 0.87796,0.1863 1.74234,0.42858 2.62896,0.57407 0.94799,0.2369 1.828,0.67652 2.74143,1.01503 0.63371,0.27678 1.33919,0.54318 1.87009,1.00474 0.36312,0.31568 0.45734,0.49729 0.73431,0.88644 0.63046,0.89238 1.00496,1.72286 1.19917,2.79612 0.26434,1.67026 -0.31733,3.24527 -0.94614,4.76194 -1.04025,2.34597 -2.30816,4.57898 -3.43997,6.87989 -1.33377,2.67562 -2.08645,5.57142 -2.59817,8.50186 -0.33883,2.27168 -0.47553,4.57049 -0.33752,6.86308 0.15455,1.8358 0.77527,3.58728 1.45563,5.28578 0.65725,1.55363 1.45246,2.55795 2.8086,3.54487 2.46511,1.30033 5.31334,1.62763 8.03147,2.04297 5.52692,0.83171 11.08801,1.41805 16.65603,1.89029 5.48595,0.45484 10.9893,0.74564 16.49495,0.69059 1.71168,-0.0513 1.63869,-0.0197 3.20753,-0.16517 0.92534,-0.0858 1.89356,-0.12707 2.65299,-0.71128 -7.62037,4.41878 -9.19673,1.98209 -7.39938,4.58811 0,0 8.04363,-4.11761 8.04363,-4.11761 v 0 c 1.06453,3.36331 0.29569,0.39365 -7.6582,5.10314 -1.82915,0.33404 -3.70652,0.17375 -5.55337,0.16373 -5.4136,-0.18496 -10.82151,-0.52235 -16.22044,-0.95959 -5.67337,-0.46668 -11.33708,-1.04277 -16.991,-1.70521 -2.56887,-0.31501 -5.44067,-0.53999 -7.82262,-1.64949 -0.29808,-0.13884 -0.57385,-0.32125 -0.86078,-0.48187 -0.22779,-0.17799 -0.46628,-0.34309 -0.68339,-0.53398 -1.05976,-0.93182 -1.80895,-2.1475 -2.34629,-3.43992 -0.68779,-1.79247 -1.37323,-3.62378 -1.53898,-5.55067 -0.14605,-2.37647 0.0151,-4.75542 0.37608,-7.10873 0.52659,-2.98683 1.23842,-5.96094 2.52179,-8.7238 1.06117,-2.27253 2.26209,-4.47645 3.28162,-6.76882 0.59175,-1.325 1.21795,-2.74544 1.01544,-4.22914 -0.14668,-0.89617 -0.46061,-1.69703 -1.00234,-2.43591 -0.61691,-0.80718 -1.39137,-1.11527 -2.32081,-1.46838 -0.88034,-0.34677 -1.76793,-0.69518 -2.70416,-0.8591 -0.88625,-0.20837 -1.76699,-0.44232 -2.6704,-0.56884 0,0 7.37424,-5.11514 7.37424,-5.11514 z"
             id="path4508"
             style="fill:#005c94;fill-opacity:1;stroke-width:0.26458332" />
        </g>
      </g>
    </g>
    <text
       id="text4514"
       y="13.818456"
       x="90.512978"
       style="font-style:normal;font-weight:normal;font-size:10.36957455px;line-height:1.25;font-family:sans-serif;letter-spacing:0px;word-spacing:0px;fill:#000000;fill-opacity:1;stroke:none;stroke-width:0.25923935"
       xml:space="preserve"><tspan
         style="font-style:normal;font-variant:normal;font-weight:normal;font-stretch:normal;font-size:19.35654068px;line-height:1.25;font-family:Iosevka;-inkscape-font-specification:Iosevka;letter-spacing:2.27612185px;fill:#ff6600;stroke-width:0.25923935"
         y="22.993099"
         x="90.512978"
         id="tspan4510"
         sodipodi:role="line" /><tspan
         dx="0 3.8121581e-009 -0.52374262 -0.78561395 -0.52374256 -0.78561389 -1.0474852 -0.78561389 -1.0474852 -0.78561395 -1.0474852 -0.78561395"
         id="tspan4512"
         style="font-style:normal;font-variant:normal;font-weight:200;font-stretch:normal;font-size:16.59131813px;line-height:1;font-family:Iosevka;-inkscape-font-specification:'Iosevka Ultra-Light';stroke-width:0.25923935"
         y="39.758579"
         x="90.512978"
         sodipodi:role="line">Микросервисы</tspan></text>
  </g>
</svg>
